# xmcd
#
# Track frame offsets: 
#        225
#        23531
#        52907
#        79338
#        114115
#        144639
#        175402
#        209776
#        236698
#        260357
#
# Disc length: 3726 seconds
#
# Revision: 3
# Processed by: cddbd v1.5.2PL0 Copyright (c) Steve Scherf et al.
# Submitted via: ExactAudioCopy v1.0b3
#
DISCID=860e8b0a
DTITLE=Various Artist - Grillparty - Folge 2
DYEAR=1998
DGENRE=Country
TTITLE0=Auf Nach Nashville - Drei Ganze Wochen Frei - Ich Geb' Heut' N
TTITLE0=acht Ne Kleine Party - Intercity Linie Nr. 4
TTITLE1=Auf Nach Nashville - 14 Tage  Auf Dem Brenner - Und Wieder Zei
TTITLE1=gt Dir Einer Einen Vogel - Ein Duft Von Heu
TTITLE2=Auf Nach Nashville - Hey Driver - Country Music - Komm Unter M
TTITLE2=eine Decke - Einen Trucker Legst Du Niemals An Die Leine
TTITLE3=Auf Nach Nashville - Hallo, Guten Morgen Deutschland - Country
TTITLE3=Music - Sie Ist Ein Ehrbares Mädchen - Ich War Noch Nie In Ka
TTITLE3=nsas City
TTITLE4=Auf Nach Nashville - Und In Hamburg Sitzt Gaby - Ring Aus Feue
TTITLE4=r - Auf Nach Westen - Bärenstarke Cowboys
TTITLE5=Auf Nach Nashville - Mädchen Ab 30 - Rheinhausen, Du Darfst Ni
TTITLE5=cht Untergeh'n - Auf Der Autobahn - Truckerfeste
TTITLE6=Auf Nach Nashville - Wir Hör'n Uns Wieder Im Radio - Ihr Leben
TTITLE6=, Das Ist Ihr Laster - Ich Brauche Einen Guten Freund - Oh Nur
TTITLE6=Mit Dir
TTITLE7=Auf Nach Nashville - I Und Der Niedermeier - Ruby - Ohne Moos 
TTITLE7=Nichts Los - Dankwart Und Leila
TTITLE8=Auf Nach Nashville - Ich Fahre Nie Mehr Blau - Ich Geh' Nie Wi
TTITLE8=eder Auf Den Acker - Ich Hör' So Gern Cajun Music
TTITLE9=Johnny Hill - Ruf Teddybär Eins-Vier
EXTD=ID3G:   2
EXTT0=
EXTT1=
EXTT2=
EXTT3=
EXTT4=
EXTT5=
EXTT6=
EXTT7=
EXTT8=
EXTT9=
PLAYORDER=
